<svg xmlns="http://www.w3.org/2000/svg" viewBox="0 0 800 520">
  <rect width="800" height="520" rx="32" fill="#ffffff" opacity="0.08"/>
  <rect x="80" y="60" width="640" height="400" rx="24" fill="#ffffff"/>
  <rect x="110" y="100" width="200" height="24" rx="12" fill="#dbeafe"/>
  <rect x="110" y="145" width="580" height="16" rx="8" fill="#e5e7eb"/>
  <rect x="110" y="175" width="540" height="16" rx="8" fill="#e5e7eb"/>
  <rect x="110" y="220" width="160" height="180" rx="18" fill="#eff6ff"/>
  <rect x="290" y="220" width="160" height="180" rx="18" fill="#ecfeff"/>
  <rect x="470" y="220" width="160" height="180" rx="18" fill="#f0fdf4"/>
  <circle cx="190" cy="270" r="26" fill="#60a5fa"/>
  <circle cx="370" cy="270" r="26" fill="#22d3ee"/>
  <circle cx="550" cy="270" r="26" fill="#34d399"/>
  <rect x="145" y="320" width="90" height="12" rx="6" fill="#cbd5e1"/>
  <rect x="325" y="320" width="90" height="12" rx="6" fill="#cbd5e1"/>
  <rect x="505" y="320" width="90" height="12" rx="6" fill="#cbd5e1"/>
</svg>
